<svg xmlns="http://www.w3.org/2000/svg" viewBox="0 0 303.5 769.5"><title>資產 1</title><g id="圖層_2" data-name="圖層 2"><g id="圖層_1-2" data-name="圖層 1"><path d="M42.9,45c4.54-1.24,7-6.94,5.38-12.74S41.75,22.74,37.21,24s-7,6.93-5.39,12.74S38.35,46.22,42.9,45Z"/><ellipse cx="57.76" cy="24.56" rx="8.53" ry="10.89" transform="translate(-4.72 18.61) rotate(-17.59)"/><ellipse cx="77.33" cy="18.3" rx="9.44" ry="12.06" transform="translate(-1.97 13.22) rotate(-9.65)"/><ellipse cx="100.13" cy="15.32" rx="10.07" ry="12.85" transform="translate(-1.15 16.99) rotate(-9.65)"/><ellipse cx="129.23" cy="15.98" rx="16" ry="13.11" transform="translate(102.37 143.4) rotate(-85.15)"/><path d="M129.83,45.2C128.07,34.84,107,29.79,82.68,33.92S40.14,49.79,41.9,60.14c.52,3,2.67,5.59,6.07,7.61,10,11.64,18.88,27.33,25.25,45.55A71.16,71.16,0,0,0,78,131.7c9.75,24,29.84,38.57,44.88,32.46s19.32-30.52,9.57-54.55c-.17-.42-.35-.83-.52-1.24a122.27,122.27,0,0,1-5.12-30.91,124.08,124.08,0,0,1,1.62-25.68A9.89,9.89,0,0,0,129.83,45.2Z"/><ellipse cx="264.29" cy="34.48" rx="10.89" ry="8.53" transform="translate(161.91 280.56) rotate(-74.84)"/><ellipse cx="246.59" cy="24.56" rx="10.89" ry="8.53" transform="translate(148.65 252.19) rotate(-72.41)"/><ellipse cx="227.02" cy="18.3" rx="12.06" ry="9.44" transform="translate(170.94 239.04) rotate(-80.35)"/><path d="M202.06,28c5.48.93,10.89-4,12.08-11s-2.29-13.43-7.77-14.36-10.89,4-12.08,11S196.58,27.06,202.06,28Z"/><ellipse cx="175.11" cy="15.98" rx="13.11" ry="16" transform="translate(-0.72 14.87) rotate(-4.85)"/><path d="M172.39,108.37l-.51,1.24c-9.75,24-5.47,48.45,9.56,54.55s35.13-8.43,44.89-32.46a72,72,0,0,0,4.8-18.4c6.36-18.22,15.29-33.91,25.24-45.55,3.4-2,5.56-4.59,6.07-7.61,1.76-10.35-16.5-22.09-40.78-26.22s-45.39.92-47.15,11.28a9.89,9.89,0,0,0,1.38,6.58,124.08,124.08,0,0,1,1.62,25.68A121.82,121.82,0,0,1,172.39,108.37Z"/><path d="M303.27,215.29a36.05,36.05,0,0,0-31.4-31.7,34.79,34.79,0,0,0-8.81,0H243.45a19.26,19.26,0,0,0-5.75-.12H47.43v.12h-7a34.79,34.79,0,0,0-8.81,0,36.05,36.05,0,0,0-31.4,31.7,35.86,35.86,0,0,0,0,8.11V440.84H.31a36,36,0,0,0,72.07,0c0-1.11-.06-2.2-.16-3.28v-182a18.85,18.85,0,0,0,2,.11,20.35,20.35,0,0,0,2.82-.21v478h.08a36,36,0,0,0,72.07,0c0-1.11-.06-2.2-.16-3.29V512.29h5.21V730.18c-.1,1.09-.16,2.18-.16,3.29a36,36,0,0,0,72.07,0h.08v-478h5.05v182.1c-.1,1.08-.16,2.17-.16,3.28a36,36,0,0,0,72.07,0h.08V223.4a35.86,35.86,0,0,0,0-8.11Z"/></g></g></svg>